<svg width="204" height="200" viewBox="0 0 204 200" fill="none" xmlns="http://www.w3.org/2000/svg">
<path d="M50.9995 106.5C46.9994 86.4998 29.9994 66 18.9995 67C3.99958 70 -2.00043 94 1.49953 111.5C6.48472 126.97 19.4421 142.207 34.9994 137.5C48.215 133.502 54.2996 123 50.9995 106.5Z" fill="#FACC14"/>
<path d="M92.9346 67.5238C100.297 45.5382 95.1223 15.7102 83.7089 10.4773C67.22 4.95525 47.7339 25.2315 41.2914 44.4686C37.4611 62.5438 41.6253 84.8954 59.6288 89.0495C74.9223 92.5783 86.8603 85.6616 92.9346 67.5238Z" fill="#FACC14"/>
<path d="M153.533 105.533C157.533 85.5339 174.532 65.0352 185.531 66.0352C200.53 69.035 206.53 93.0337 203.03 110.533C198.045 126.002 185.088 141.238 169.532 136.531C156.317 132.533 150.233 122.032 153.533 105.533Z" fill="#FACC14"/>
<path d="M112.003 67.1158C105.23 44.941 111.202 15.261 122.752 10.3346C139.383 5.25472 158.321 26.0446 164.247 45.4474C167.593 63.6189 162.832 85.852 144.723 89.5239C129.339 92.6431 117.59 85.4099 112.003 67.1158Z" fill="#FACC14"/>
<path fill-rule="evenodd" clip-rule="evenodd" d="M63.7765 119.333C62.3884 121.54 60.9803 123.779 59.4998 126C57.2103 128.104 54.9923 130.083 52.8704 131.977C37.8467 145.385 27.6412 154.493 30.9998 173C42.6859 206.188 66.1707 201.358 95.7347 195.277L95.7358 195.276L95.7359 195.276C97.5873 194.896 99.4624 194.51 101.36 194.128V194.159C103.477 194.582 105.565 195.012 107.625 195.435C137.188 201.516 160.673 206.347 172.359 173.158C175.717 154.651 165.512 145.543 150.488 132.134C148.367 130.241 146.149 128.261 143.859 126.157C142.379 123.937 140.971 121.698 139.583 119.491L139.583 119.491L139.583 119.49C130.748 105.443 122.726 92.6868 102 94.1086V94C80.7976 92.2693 72.7013 105.142 63.7765 119.333ZM101.162 183C101.162 183 73.0005 164.244 73 146.125C72.9997 136.403 76.0144 124.826 87.0808 125.005C96.7947 125.162 101.162 140.761 101.162 140.761C101.162 140.761 106.88 125.246 116.919 125.005C128.435 124.729 131 135.397 131 146.125C131 165.153 101.162 183 101.162 183Z" fill="#FACC14"/>
</svg>
